# xmcd
# Track frame offsets:
# 150
# 12065
# 22937
# 40340
# 56900
# 68685
# 86227
# 96290
# 109405
# 125585
# 139707
# 157357
#
# Disc length: 2572 seconds
# Revision: 0
# Processed by: cddbd v1.4PL0 Copyright (c) Steve Scherf et al.
# Submitted via: VisiTrax 2.9.5.180 - For more info visit www.synapsa.com
#
DISCID=a80a0a0c
DTITLE=Wade Sims - big Tomato Two Step
DYEAR=2000
DGENRE=
TTITLE0=Wade Sims - I like being country
TTITLE1=Wade Sims - Independent man
TTITLE2=Wade Sims - When you let go of me
TTITLE3=Wade Sims - Big tomato two step
TTITLE4=Wade Sims - It took both of us
TTITLE5=Wade Sims - I'm cryin' now
TTITLE6=Wade Sims - The likes of a woman like you
TTITLE7=Wade Sims - When I get the time
TTITLE8=Wade Sims - Suitcase full of memories
TTITLE9=Wade Sims - Neat little package
TTITLE10=Wade Sims - The devil ain't seen nothing
TTITLE11=Wade Sims/Shane Worley - Wine, women and song
EXTD=
EXTT0=
EXTT1=
EXTT2=
EXTT3=
EXTT4=
EXTT5=
EXTT6=
EXTT7=
EXTT8=
EXTT9=
EXTT10=
EXTT11=
PLAYORDER=
